<svg xmlns="http://www.w3.org/2000/svg" data-name="Layer 307" viewBox="0 0 47.65 47.65"><path fill="#4895ef" d="M41.54 0H6.11A6.12 6.12 0 0 0 0 6.11v32.68h6.68a3 3 0 0 1 3 3v5.83h31.86a6.12 6.12 0 0 0 6.11-6.11V6.08A6.12 6.12 0 0 0 41.54 0ZM23.79 28.45H7.9a1.5 1.5 0 1 1 0-3h15.89a1.5 1.5 0 0 1 0 3Zm0-7.9H7.9a1.5 1.5 0 1 1 0-3h15.89a1.5 1.5 0 0 1 0 3Zm0-7.89H7.9a1.5 1.5 0 1 1 0-3h15.89a1.5 1.5 0 0 1 0 3Zm11.22 21.62a.55.55 0 0 1-.84 0l-4.36-5.07h1.67a.55.55 0 0 0 .55-.55v-17a.55.55 0 0 1 .55-.55h4a.56.56 0 0 1 .56.55v17a.54.54 0 0 0 .55.55h1.7Z"/><path fill="#4895ef" d="m0 41.38 6.88 6.27v-4.5a1.77 1.77 0 0 0-1.77-1.77Z"/></svg>