<svg xmlns="http://www.w3.org/2000/svg" data-name="Layer 1" viewBox="0 0 512 512"><path fill="#00efd1" d="M140.55,339.9,76.98,315.52v-59.5H435.02v59.5L371.45,339.9,256,384.18Zm217.82-39.4a20.005,20.005,0,1,0-20.01,20.01A20.009,20.009,0,0,0,358.37,300.5Zm-164.73,0a20.005,20.005,0,1,0-20,20.01A20.007,20.007,0,0,0,193.64,300.5Z"/><path fill="#00acea" d="M254,97.9H167.33a26.855,26.855,0,0,0-26.85,26.85v88.33H371.52V124.75A26.855,26.855,0,0,0,344.67,97.9Zm154.17,8.66V256.02H103.83V106.56a29.617,29.617,0,0,1,19.01-27.65L245.39,31.88a29.522,29.522,0,0,1,21.22,0L389.16,78.91A29.617,29.617,0,0,1,408.17,106.56Z"/><path fill="#f4b844" d="M371.52,124.75v88.33H254V97.9h90.67A26.855,26.855,0,0,1,371.52,124.75Z"/><path fill="#00acea" d="M338.36,280.5a20.005,20.005,0,1,1-20,20A20.009,20.009,0,0,1,338.36,280.5Z"/><path fill="#fedb41" d="M254,212v1.08H140.48V124.75A26.855,26.855,0,0,1,167.33,97.9H254Z"/><path fill="#00acea" d="M173.64,280.5a20.005,20.005,0,1,1-20.01,20A20.007,20.007,0,0,1,173.64,280.5Z"/><path fill="#083863" d="M173.64 328.51a28.005 28.005 0 1 0-28.01-28.01A28.037 28.037 0 0 0 173.64 328.51zm0-40.01a12.005 12.005 0 1 1-12.01 12A12.013 12.013 0 0 1 173.64 288.5zM338.36 328.51a28.005 28.005 0 1 0-28-28.01A28.041 28.041 0 0 0 338.36 328.51zm0-40.01a12.005 12.005 0 1 1-12 12A12.019 12.019 0 0 1 338.36 288.5zM344.67 90H167.33C148.114 90 132 105.534 132 124.75v88.33c0 4.419 4.062 7.92 8.48 7.92H371.52c4.418 0 8.48-3.5 8.48-7.92V124.75C380 105.534 363.886 90 344.67 90zM148 124.75c0-10.394 8.937-18.75 19.33-18.75H246v99H148zM364 205H262V106h82.67c10.393 0 19.33 8.356 19.33 18.75z"/><path fill="#083863" d="M435.02,248H416V106.56a37.75,37.75,0,0,0-24.059-35.119l-122.5-47.027a37.4,37.4,0,0,0-26.941,0L120.051,71.44A37.742,37.742,0,0,0,96,106.56V248H76.98A8,8,0,0,0,69,256.02v59.5a7.992,7.992,0,0,0,5.126,7.47l55.9,21.443L74.487,479.039a8,8,0,0,0,7.391,11.053,7.911,7.911,0,0,0,7.4-4.851L100.557,458H411.443l11.282,27.241a8.017,8.017,0,0,0,14.791-6.189L381.975,344.439l55.9-21.446A8,8,0,0,0,443,315.52v-59.5A8,8,0,0,0,435.02,248ZM112,106.56a21.66,21.66,0,0,1,13.791-20.181L248.307,39.346a21.436,21.436,0,0,1,15.458,0L386.223,86.38A21.651,21.651,0,0,1,400,106.56V248H112ZM236.475,385H130.487l14.482-35.1ZM107.158,442l16.728-41H388.114l16.728,41Zm274.355-57H275.525l91.506-35.1ZM427,310.02l-57.084,21.9a7.662,7.662,0,0,0-2.636,1.014L256,375.612,144.717,332.931a7.722,7.722,0,0,0-2.633-1.014L85,310.02V264H427Z"/></svg>