<svg xmlns="http://www.w3.org/2000/svg" enable-background="new 0 0 60 60" viewBox="0 0 60 60"><path fill="#2B79C2" d="M48.7919807,18.761097l-6.3999634,6.2299805l5.3299561,21.7000122
	c0.1000366,0.3999634-0.0499878,0.8099976-0.3799438,1.0499878L42.532032,51.261097
	c-0.2200317,0.1599731-0.5,0.2299805-0.7700195,0.1799927s-0.5100098-0.210022-0.6600342-0.4400024l-9.8800049-15.3300171
	l-6.8399658,6.1099854l1.8499756,8.1300049c0.0800171,0.3699951-0.0499878,0.75-0.3399658,0.9899902l-3.5200195,2.8699951
	c-0.1799927,0.1500244-0.4099731,0.2300415-0.6400146,0.2300415c-0.0499878,0-0.1099854-0.0100098-0.1699829-0.0200195
	c-0.289978-0.0499878-0.539978-0.2199707-0.6900024-0.4699707l-5.3499765-9.0400391l-9.0300293-5.3499756
	c-0.25-0.1500244-0.4299927-0.4000244-0.4799805-0.6799927c-0.0499878-0.2900391,0.0299683-0.5800171,0.2099609-0.8099976
	l2.8700557-3.5200195c0.2399902-0.2999878,0.6299438-0.4299927,1-0.3400269l8.1199961,1.8500366l6.1199951-6.8500366
	l-15.330018-9.8799438c-0.2299805-0.1500244-0.3900146-0.3800049-0.4400024-0.6500244
	c-0.0499878-0.2800293,0.0100098-0.5599976,0.1799927-0.7800293l3.5200195-4.8099985
	c0.2399902-0.3200073,0.6499634-0.4699707,1.039978-0.3800049l21.710022,5.3400278l6.2799683-6.4699717
	c3.0200195-3.190002,7.2800293-5.0700068,11.6900024-5.1400142c0.2600098-0.0200195,0.5300293,0.0999756,0.7200317,0.289978
	c0.2000122,0.2000122,0.3099976,0.4700317,0.2999878,0.7399902C53.9020271,11.4610472,52.0020027,15.7410765,48.7919807,18.761097z"/></svg>