<svg xmlns="http://www.w3.org/2000/svg" data-name="Layer 1" width="18" height="18" viewBox="0 0 64 64"><path d="M40.62,5.8a5.8,5.8,0,0,0-2.42.53A6.53,6.53,0,0,0,32,1a6.55,6.55,0,0,0-6.2,5.33,5.77,5.77,0,0,0-2.42-.53c-3.52,0-6.38,3.14-6.38,7a6.7,6.7,0,0,0,.13,1.39,1,1,0,0,0,1,.81H45.89a1,1,0,0,0,1-.81A6.7,6.7,0,0,0,47,12.8C47,8.94,44.14,5.8,40.62,5.8Z"/><path d="M49.62,12h-.69a10.78,10.78,0,0,1-.07,3,1.18,1.18,0,0,1-1.12,1H16.26a1.18,1.18,0,0,1-1.12-1,10.78,10.78,0,0,1-.07-3h-.69A2.35,2.35,0,0,0,12,14.32V55.68A2.35,2.35,0,0,0,14.38,58H49.62A2.35,2.35,0,0,0,52,55.68V14.32A2.35,2.35,0,0,0,49.62,12ZM24,17H40v2H24Zm18,7v2H30V24ZM30,36H42v2H30Zm0,12H42v2H30Zm-9.29,5.71a1,1,0,0,1-1.42,0l-2-2,1.42-1.42L20,51.59l5.29-5.3,1.42,1.42Zm0-12a1,1,0,0,1-1.42,0l-2-2,1.42-1.42L20,39.59l5.29-5.3,1.42,1.42Zm0-12a1,1,0,0,1-1.42,0l-2-2,1.42-1.42L20,27.59l5.29-5.3,1.42,1.42ZM48,54H30V52H48Zm0-12H30V40H48Zm0-12H30V28H48Z"/><path d="M53,8H47.68a9.94,9.94,0,0,1,.85,2h2.85A2.57,2.57,0,0,1,54,12.52v45A2.57,2.57,0,0,1,51.38,60H12.62A2.57,2.57,0,0,1,10,57.48v-45A2.57,2.57,0,0,1,12.62,10h2.85a9.94,9.94,0,0,1,.85-2H11a2.76,2.76,0,0,0-3,3V59a2.76,2.76,0,0,0,3,3H53a2.76,2.76,0,0,0,3-3V11A2.76,2.76,0,0,0,53,8Z"/></svg>